<?xml version="1.0" standalone="no"?>
<!DOCTYPE svg PUBLIC "-//W3C//DTD SVG 20010904//EN"
 "http://www.w3.org/TR/2001/REC-SVG-20010904/DTD/svg10.dtd">
<svg version="1.0" xmlns="http://www.w3.org/2000/svg"
 width="274.000000pt" height="274.000000pt" viewBox="0 0 274.000000 274.000000"
 preserveAspectRatio="xMidYMid meet">
<metadata>
Created by potrace 1.14, written by Peter Selinger 2001-2017
</metadata>
<g transform="translate(0.000000,274.000000) scale(0.100000,-0.100000)"
fill="#000000" stroke="none">
<path d="M0 2538 l0 -202 28 -29 27 -30 -27 18 -28 17 0 -247 c1 -245 1 -247
20 -230 13 12 17 22 11 29 -11 13 -18 102 -9 111 3 3 33 6 68 6 72 1 80 -5 80
-69 0 -39 -2 -43 -30 -48 -27 -6 -30 -10 -30 -45 0 -34 3 -38 28 -41 25 -3 27
-7 30 -55 2 -38 -1 -53 -10 -54 -7 -1 -24 -3 -38 -4 -14 -2 -32 1 -40 6 -10 6
-4 8 21 9 38 0 49 12 49 50 0 26 -15 33 -66 32 -24 -1 -44 3 -44 8 0 6 9 10
19 10 15 0 19 7 18 35 l-1 35 -29 -35 c-16 -19 -33 -32 -38 -29 -7 4 -9 -102
-8 -294 1 -248 4 -299 15 -295 8 3 17 -2 20 -11 3 -9 10 -13 16 -10 5 3 7 12
4 20 -3 8 -2 14 3 14 10 0 41 -111 41 -147 0 -22 -2 -25 -10 -13 -5 8 -10 11
-10 6 0 -5 -6 -4 -12 1 -7 6 -25 13 -40 17 -34 8 -38 -11 -5 -24 22 -9 22 -9
-3 -10 -20 0 -22 -2 -10 -10 12 -8 12 -10 1 -10 -8 0 -2 -10 15 -25 16 -14 24
-25 17 -25 -6 0 -15 4 -18 10 -19 31 -25 -5 -25 -164 l0 -174 33 -8 c17 -4 61
-6 96 -5 45 2 66 -1 72 -11 7 -10 9 -9 9 5 0 10 5 15 10 12 6 -3 10 -16 10
-28 0 -18 -6 -22 -32 -22 -174 -3 -198 -5 -198 -21 0 -15 9 -16 73 -9 104 12
120 11 124 -2 3 -7 -16 -14 -54 -19 -32 -4 -67 -10 -78 -14 -17 -7 -14 -9 15
-14 111 -19 130 -13 130 40 0 41 20 16 27 -33 8 -59 -22 -83 -112 -89 -123 -7
-125 -8 -125 -64 0 -38 4 -50 17 -53 17 -4 17 -5 1 -6 -10 0 -18 -5 -18 -11 0
-14 88 -12 210 6 58 8 116 16 130 18 44 5 45 6 25 22 -17 13 -18 16 -5 25 8 5
24 6 35 3 41 -13 173 -16 194 -5 19 10 22 9 31 -14 9 -25 13 -26 53 -20 23 4
47 11 53 16 20 16 44 -2 69 -50 28 -56 45 -71 88 -80 31 -7 32 -9 40 -66 4
-33 6 -79 4 -102 l-5 -43 610 0 c577 0 610 1 602 18 -4 9 -9 42 -10 72 -2 30
-7 82 -13 115 -14 88 -11 137 9 130 8 -4 37 -11 65 -16 27 -5 66 -20 85 -34
20 -14 39 -25 43 -25 4 0 30 -14 59 -32 50 -31 79 -53 135 -105 13 -13 27 -23
31 -23 4 -1 23 -14 42 -30 19 -17 38 -30 43 -30 4 0 17 -9 29 -20 13 -12 34
-19 54 -18 l34 1 0 69 c0 48 -4 68 -12 68 -10 0 -10 2 -1 8 13 8 13 64 -1 74
-6 4 -22 4 -37 1 -15 -3 -30 0 -33 6 -5 7 3 12 21 13 15 0 35 1 43 2 13 1 15
106 18 873 l2 872 -37 4 -38 4 38 1 37 2 0 370 0 370 -510 0 -510 0 0 -39 c0
-21 -6 -43 -12 -49 -21 -17 -123 -10 -145 11 -42 37 -75 15 -36 -24 66 -65 92
-116 53 -106 -10 3 -21 0 -22 -5 -2 -6 -35 25 -73 67 -74 83 -122 113 -155 95
-27 -15 -139 -9 -133 8 3 6 11 12 19 12 8 0 14 7 14 15 0 13 -42 15 -314 15
-242 0 -316 -3 -320 -12 -5 -10 -7 -10 -12 0 -4 9 -73 12 -295 12 l-289 0 0
-202z m630 78 c0 -52 -6 -43 -13 18 -3 30 -1 43 4 35 5 -8 9 -32 9 -53z m550
54 c0 -5 -5 -10 -11 -10 -5 0 -7 5 -4 10 3 6 8 10 11 10 2 0 4 -4 4 -10z
m1498 -18 c3 -9 -3 -13 -19 -10 -12 1 -24 9 -27 16 -3 9 3 13 19 10 12 -1 24
-9 27 -16z m-1571 -37 c-14 -14 -28 -22 -31 -16 -7 10 44 55 52 46 3 -2 -7
-16 -21 -30z m-418 1 c-13 -14 -26 -22 -29 -19 -5 4 37 43 47 43 3 0 -5 -11
-18 -24z m81 -11 c20 -37 -5 -145 -33 -145 -4 0 -1 10 7 23 8 12 17 38 21 58
5 29 2 41 -19 66 -22 27 -23 30 -7 26 10 -2 24 -15 31 -28z m634 25 c-5 -5
-36 -11 -69 -14 -66 -5 -106 -17 -176 -53 -54 -27 -92 -29 -142 -8 -58 24
-112 20 -148 -13 -26 -23 -32 -37 -34 -78 -2 -27 -7 -50 -11 -52 -16 -5 -15
73 1 110 19 47 49 67 112 74 39 5 58 2 93 -16 29 -15 45 -19 48 -11 2 6 20 11
40 11 38 0 112 24 147 47 23 15 155 19 139 3z m-1140 -9 c3 -5 -1 -14 -8 -20
-12 -10 -13 -8 -9 8 6 23 9 25 17 12z m429 -93 c9 -6 9 -8 0 -8 -14 0 -33 32
-32 52 0 7 5 2 10 -12 6 -13 15 -28 22 -32z m1647 45 c-8 -3 -25 -17 -37 -30
l-23 -24 0 30 c0 29 2 31 38 30 20 0 30 -3 22 -6z m106 -12 c-3 -5 -15 -7 -26
-4 -28 7 -25 13 6 13 14 0 23 -4 20 -9z m-2035 -16 c-1 -15 -24 -12 -29 3 -3
9 2 13 12 10 10 -1 17 -7 17 -13z m195 -27 c-9 -19 -48 -65 -87 -104 -39 -38
-78 -77 -87 -86 -9 -10 -20 -18 -25 -18 -5 0 31 40 80 89 48 49 89 91 90 95 5
17 37 65 41 62 2 -3 -4 -20 -12 -38z m1581 26 c-3 -3 -12 -4 -19 -1 -8 3 -5 6
6 6 11 1 17 -2 13 -5z m240 -40 c3 -8 1 -20 -6 -27 -6 -6 -11 -30 -11 -54 l0
-43 -70 0 c-58 0 -68 3 -64 15 7 18 0 19 -26 3 -15 -10 -24 -10 -38 -1 -28 17
-148 28 -156 14 -8 -12 -26 -6 -26 8 0 13 82 23 93 12 10 -10 76 -3 93 10 13
11 104 0 122 -14 8 -7 12 -5 12 6 0 9 -5 19 -10 22 -15 9 -2 25 15 18 9 -3 15
1 15 9 0 33 46 51 57 22z m-1202 -2 c-14 -12 -96 -34 -102 -28 -15 15 23 36
65 36 26 0 42 -4 37 -8z m965 -16 c0 -8 -7 -17 -16 -20 -30 -11 -37 -6 -19 14
21 23 35 26 35 6z m80 4 c0 -5 -6 -10 -14 -10 -8 0 -18 5 -21 10 -3 6 3 10 14
10 12 0 21 -4 21 -10z m-1557 -7 c-7 -2 -19 -2 -25 0 -7 3 -2 5 12 5 14 0 19
-2 13 -5z m6 -29 c2 -2 -7 -4 -22 -4 -14 0 -29 5 -32 10 -6 10 42 4 54 -6z
m1397 -75 c3 -6 -1 -18 -10 -27 -15 -15 -17 -15 -32 0 -19 19 -11 38 16 38 10
0 22 -5 26 -11z m-2026 -49 c0 -5 -8 -10 -17 -10 -15 0 -16 2 -3 10 19 12 20
12 20 0z m2048 -51 c-3 -20 -5 -19 -9 9 -3 20 -2 29 4 23 5 -5 7 -19 5 -32z
m-1762 -4 c-37 -32 -46 -32 -16 0 13 14 28 25 34 25 6 0 -2 -11 -18 -25z
m2213 3 c0 -13 -3 -17 -6 -10 -2 6 -11 12 -19 12 -8 0 -14 5 -14 10 0 6 9 10
20 10 14 0 20 -6 19 -22z m-49 8 c0 -11 -19 -15 -25 -6 -3 5 1 10 9 10 9 0 16
-2 16 -4z m127 -2 c-3 -3 -12 -4 -19 -1 -8 3 -5 6 6 6 11 1 17 -2 13 -5z
m-2586 -31 c13 -16 12 -17 -3 -4 -10 7 -18 15 -18 17 0 8 8 3 21 -13z m2599
-13 c-20 -13 -67 -13 -54 -1 9 10 56 19 64 13 2 -2 -2 -7 -10 -12z m-172 -18
c2 -7 -3 -12 -12 -12 -9 0 -16 7 -16 16 0 17 22 14 28 -4z m-288 -33 c0 -18
-4 -20 -32 -14 -63 14 -67 35 -8 35 34 0 40 -3 40 -21z m-1940 -2 c0 -2 -12
-14 -27 -28 l-28 -24 24 28 c23 25 31 32 31 24z m2018 -54 c13 -21 13 -23 -7
-23 -12 0 -20 4 -16 9 3 5 -4 12 -15 16 -27 8 -26 27 1 23 12 -2 28 -13 37
-25z m-2078 -3 c0 -5 -4 -10 -10 -10 -5 0 -10 5 -10 10 0 6 5 10 10 10 6 0 10
-4 10 -10z m406 -72 c-10 -41 -25 -62 -35 -52 -3 3 0 8 6 12 7 4 13 24 15 45
1 20 7 37 14 37 8 0 8 -11 0 -42z m1554 -14 c8 -8 15 -26 16 -40 5 -45 -29
-22 -41 29 -8 30 5 36 25 11z m-1623 -16 c-3 -8 -6 -5 -6 6 -1 11 2 17 5 13 3
-3 4 -12 1 -19z m2146 15 c4 -3 -2 -13 -14 -21 -24 -17 -37 -9 -19 13 14 16
23 19 33 8z m-2112 -63 c16 0 29 -4 29 -10 0 -5 -16 -10 -35 -10 -34 0 -35 -2
-35 -36 0 -31 3 -36 20 -31 10 3 21 0 24 -7 3 -8 7 -7 14 3 7 10 11 10 17 1 4
-6 3 -16 -2 -21 -6 -6 -7 -30 -3 -54 5 -31 3 -44 -4 -43 -6 1 -23 -1 -38 -5
-24 -6 -28 -13 -28 -42 0 -32 2 -35 31 -35 17 0 28 -4 24 -10 -10 -16 -62 -12
-69 6 -3 9 -6 33 -6 55 0 33 4 40 25 45 21 5 25 12 25 45 0 34 -3 39 -24 39
-29 0 -40 32 -27 78 5 17 6 34 3 38 -4 4 1 4 11 1 10 -4 32 -7 48 -7z m-172
-67 c-3 -80 16 -121 63 -130 25 -5 28 -10 28 -43 0 -65 -5 -70 -75 -70 l-63 0
-4 45 c-4 54 -1 65 18 65 17 0 19 16 2 22 -28 9 -92 2 -95 -9 -3 -8 4 -13 16
-13 23 0 35 -30 29 -76 -3 -29 -3 -29 -73 -29 l-70 0 0 50 c0 46 2 50 25 53
16 2 35 18 53 43 24 35 26 42 13 55 -8 8 -13 27 -12 42 2 15 4 35 5 45 1 14
11 17 72 17 l70 0 -2 -67z m1207 -46 c-3 -12 -12 -31 -20 -42 -15 -20 -15 -20
-16 3 0 12 7 25 15 28 9 4 13 15 11 28 -3 11 -7 39 -10 61 -5 40 -5 40 10 -8
9 -27 13 -59 10 -70z m961 81 c-3 -7 -5 -2 -5 12 0 14 2 19 5 13 2 -7 2 -19 0
-25z m-212 -116 c-10 -10 -11 3 -5 73 l5 70 3 -69 c2 -37 0 -71 -3 -74z m75
128 c0 -5 -4 -10 -10 -10 -5 0 -10 -9 -10 -21 0 -11 -4 -17 -10 -14 -14 9 -12
42 3 48 20 9 27 8 27 -3z m40 -12 c0 -4 -7 -8 -15 -8 -8 0 -15 4 -15 8 0 5 7
9 15 9 8 0 15 -4 15 -9z m239 -125 c-2 -26 -2 -26 -6 -4 -4 22 -8 23 -61 18
-35 -3 -49 -2 -37 3 11 5 39 9 63 9 40 1 42 0 41 -26z m-1123 -85 c-4 -23 -11
-48 -17 -54 -7 -9 -6 -18 2 -31 9 -15 5 -38 -20 -118 -38 -120 -73 -207 -80
-200 -2 3 -4 72 -3 153 1 81 2 155 2 165 0 10 15 24 35 34 20 9 34 22 31 29
-6 16 13 34 30 27 9 -3 14 2 14 16 0 12 3 21 6 21 4 0 4 -19 0 -42z m129 -259
c12 -35 27 -74 33 -86 10 -19 10 -28 -1 -49 l-14 -27 -41 38 -42 37 0 -44 c0
-24 4 -48 9 -53 6 -6 -7 -37 -35 -83 -24 -40 -44 -75 -44 -78 0 -3 -12 -21
-27 -40 -20 -27 -32 -34 -52 -32 -14 2 -25 6 -23 11 1 4 2 27 2 51 0 34 9 57
44 111 25 37 48 82 51 99 12 56 35 118 55 147 11 15 20 31 20 36 0 14 23 34
34 30 5 -2 19 -32 31 -68z m82 -307 c-9 -10 -14 -22 -10 -25 9 -10 -9 -8 -25
2 -12 7 -11 14 3 41 15 30 18 31 33 17 14 -15 14 -18 -1 -35z m-1417 -41 c13
-26 13 -31 -4 -31 -7 0 -16 11 -18 25 -6 30 7 33 22 6z m1357 -63 c-3 -8 -6
-5 -6 6 -1 11 2 17 5 13 3 -3 4 -12 1 -19z m-159 -153 c-12 -14 -26 -25 -32
-25 -5 0 1 11 14 25 13 14 27 25 32 25 4 0 -2 -11 -14 -25z m127 15 c-3 -5
-12 -10 -18 -10 -7 0 -6 4 3 10 19 12 23 12 15 0z m-1079 -7 c-7 -7 -77 -5
-85 3 -2 2 17 4 44 4 27 0 45 -3 41 -7z m1024 -28 c-7 -9 -15 -13 -19 -10 -3
3 1 10 9 15 21 14 24 12 10 -5z m-1360 -55 c-8 -5 -22 -9 -30 -9 -10 0 -8 3 5
9 27 12 43 12 25 0z m391 -138 c16 3 29 2 29 -1 0 -3 -11 -39 -25 -79 -14 -41
-25 -84 -25 -96 0 -12 -7 -31 -16 -42 -15 -18 -15 -17 -7 11 4 17 7 80 6 140
0 61 1 99 4 86 4 -19 10 -22 34 -19z m-81 8 c0 -5 -4 -10 -10 -10 -5 0 -10 5
-10 10 0 6 5 10 10 10 6 0 10 -4 10 -10z m1635 0 c4 -6 24 -20 47 -31 22 -11
38 -23 35 -25 -7 -7 -107 46 -107 57 0 12 17 11 25 -1z m-1976 -125 c0 -59 -4
-93 -10 -89 -12 7 -10 184 2 184 4 0 8 -43 8 -95z m337 -92 c-6 -6 -226 -63
-242 -63 -6 0 -11 16 -12 35 -1 26 2 34 11 29 7 -4 4 2 -5 13 -10 11 -18 33
-18 49 l0 29 13 -24 c6 -13 16 -23 21 -22 5 2 12 -3 16 -9 5 -9 9 -9 14 -1 4
6 2 11 -3 11 -6 0 -11 5 -11 10 0 6 16 10 36 10 19 0 42 7 50 15 9 8 26 15 39
15 51 0 32 18 -26 24 -103 12 -112 24 -13 20 67 -3 96 0 110 10 18 14 19 11
22 -66 2 -44 1 -83 -2 -85z m1365 136 c11 -5 17 -14 14 -20 -21 -34 -322 -150
-426 -164 l-44 -7 25 22 c14 11 45 33 70 47 25 15 66 42 92 60 41 29 53 32 91
27 35 -5 53 -1 93 19 57 30 59 30 85 16z m-1653 -183 c-2 -23 -9 -41 -17 -44
-10 -3 -12 0 -7 14 13 32 20 87 10 81 -5 -3 -7 19 -5 51 l5 57 8 -60 c5 -33 7
-78 6 -99z m-62 -23 c-11 -11 -19 6 -11 24 8 17 8 17 12 0 3 -10 2 -21 -1 -24z
m-66 -43 c0 -5 -2 -10 -4 -10 -3 0 -8 5 -11 10 -3 6 -1 10 4 10 6 0 11 -4 11
-10z m70 -40 c0 -5 -9 -10 -21 -10 -11 0 -17 5 -14 10 3 6 13 10 21 10 8 0 14
-4 14 -10z m2413 -7 c-7 -2 -21 -2 -30 0 -10 3 -4 5 12 5 17 0 24 -2 18 -5z
m44 -55 c-2 -13 -4 -3 -4 22 0 25 2 35 4 23 2 -13 2 -33 0 -45z m-64 -15 c-7
-2 -19 -2 -25 0 -7 3 -2 5 12 5 14 0 19 -2 13 -5z m-78 -133 c8 -13 -15 -13
-35 0 -12 8 -11 10 7 10 12 0 25 -4 28 -10z m108 3 c-7 -2 -19 -2 -25 0 -7 3
-2 5 12 5 14 0 19 -2 13 -5z"/>
<path d="M299 1923 c5 -33 10 -38 33 -38 14 -1 33 -6 41 -13 18 -15 27 2 27
54 l0 34 -53 0 -54 0 6 -37z"/>
<path d="M332 1858 c-18 -18 -15 -25 13 -25 21 0 23 2 14 18 -12 22 -12 22
-27 7z"/>
<path d="M390 1832 c0 -5 7 -15 15 -22 20 -17 19 -33 -4 -47 -13 -8 -19 -21
-17 -40 3 -26 7 -28 55 -31 l51 -3 0 34 c0 29 -4 36 -25 41 -13 3 -31 19 -40
36 -16 30 -35 48 -35 32z"/>
<path d="M228 1763 c-13 -3 -18 -15 -18 -39 l0 -34 55 0 55 0 0 34 c0 26 -5
35 -22 40 -25 6 -44 6 -70 -1z"/>
<path d="M676 683 c-3 -3 -3 -10 0 -14 7 -12 34 -11 34 0 0 11 -26 22 -34 14z"/>
<path d="M385 460 c-3 -5 -1 -10 4 -10 6 0 11 5 11 10 0 6 -2 10 -4 10 -3 0
-8 -4 -11 -10z"/>
<path d="M47 1953 c-4 -3 -7 -21 -7 -39 0 -39 24 -51 73 -35 33 11 34 15 28
74 -1 9 -85 10 -94 0z"/>
<path d="M0 610 c0 -5 11 -10 24 -10 14 0 28 5 31 10 4 6 -7 10 -24 10 -17 0
-31 -4 -31 -10z"/>
<path d="M120 610 l-45 -7 40 -1 c22 0 49 3 60 8 23 10 9 10 -55 0z"/>
<path d="M125 460 l-30 -8 33 -1 c17 0 32 4 32 9 0 6 -1 9 -2 9 -2 -1 -16 -5
-33 -9z"/>
<path d="M185 460 c-3 -5 -1 -10 4 -10 6 0 11 5 11 10 0 6 -2 10 -4 10 -3 0
-8 -4 -11 -10z"/>
<path d="M2230 276 c0 -7 -13 -16 -30 -19 -16 -4 -30 -12 -30 -18 0 -6 6 -9
13 -6 7 3 24 -1 38 -9 29 -16 49 -18 49 -4 0 6 -7 10 -15 10 -15 0 -19 10 -16
43 1 9 0 17 -3 17 -3 0 -6 -6 -6 -14z"/>
<path d="M2130 230 c0 -5 4 -10 9 -10 6 0 13 5 16 10 3 6 -1 10 -9 10 -9 0
-16 -4 -16 -10z"/>
<path d="M245 220 c3 -5 10 -10 16 -10 5 0 9 5 9 10 0 6 -7 10 -16 10 -8 0
-12 -4 -9 -10z"/>
<path d="M2567 14 c6 -15 23 -19 23 -5 0 5 -7 11 -14 14 -10 4 -13 1 -9 -9z"/>
</g>
</svg>
